<?xml version="1.0" standalone="no"?>
<!DOCTYPE svg PUBLIC "-//W3C//DTD SVG 20010904//EN"
 "http://www.w3.org/TR/2001/REC-SVG-20010904/DTD/svg10.dtd">
<svg version="1.0" xmlns="http://www.w3.org/2000/svg"
 width="3000.000000pt" height="2000.000000pt" viewBox="0 0 3000.000000 2000.000000"
 preserveAspectRatio="xMidYMid meet">
<metadata>
Created by potrace 1.16, written by Peter Selinger 2001-2019
</metadata>
<g transform="translate(0.000000,2000.000000) scale(0.100000,-0.100000)"
fill="#000000" stroke="none">
<path d="M10 16522 l0 -3468 108 -105 c516 -506 1037 -903 1647 -1254 290
-167 782 -406 795 -386 3 4 16 14 30 21 21 11 57 34 159 102 14 10 37 23 51
30 14 7 27 15 30 18 7 9 114 89 179 134 31 21 81 60 111 85 30 26 71 58 90 71
19 13 51 37 71 54 20 17 45 38 55 46 30 23 128 104 134 110 3 3 21 17 42 32
20 15 43 35 52 43 9 9 22 13 28 9 7 -4 10 -4 6 1 -4 4 9 21 30 37 69 54 116
93 135 111 10 10 23 15 29 11 7 -4 8 -3 4 4 -4 7 -3 12 1 12 5 0 19 10 33 23
25 23 211 168 285 222 22 16 45 33 50 37 96 75 155 118 161 118 4 0 26 16 50
35 28 23 49 33 61 29 13 -4 14 -3 5 4 -10 7 36 42 177 136 105 69 193 126 196
126 4 0 25 13 48 29 85 57 411 231 435 231 6 0 12 4 14 8 2 5 44 25 93 46 50
21 104 44 120 51 112 50 332 124 445 150 41 9 84 21 95 25 37 15 95 22 95 10
0 -7 6 -8 19 0 11 5 29 10 41 10 12 0 19 4 16 8 -2 4 3 8 12 8 9 0 72 9 140
18 68 10 139 16 158 13 18 -3 36 -2 39 3 3 5 114 7 248 5 228 -3 300 -7 372
-19 17 -3 53 -8 80 -11 28 -3 64 -8 80 -10 17 -3 84 -12 150 -21 66 -9 145
-20 175 -24 360 -52 752 -62 955 -23 147 28 345 89 385 118 8 6 35 20 60 30
25 11 77 40 115 64 39 25 74 45 78 46 5 0 15 8 22 19 8 10 19 15 26 10 8 -4
10 -3 5 4 -4 7 11 23 38 40 25 16 43 31 40 34 -2 3 12 18 33 34 21 16 53 43
72 61 35 34 51 37 59 14 3 -9 -2 -11 -17 -6 -26 8 -27 -3 -3 -21 14 -10 15
-15 5 -25 -18 -18 -16 -34 2 -19 9 7 19 10 23 6 4 -4 -3 -16 -15 -26 -12 -9
-20 -20 -17 -22 2 -3 -3 -11 -13 -19 -15 -12 -16 -12 -10 3 5 15 4 16 -13 6
-11 -7 -15 -15 -10 -18 6 -4 -3 -19 -19 -34 -16 -16 -34 -25 -39 -22 -6 4 -14
1 -18 -5 -5 -8 -3 -9 7 -4 8 4 4 -2 -9 -14 -12 -12 -27 -19 -34 -15 -6 4 -8 3
-4 -4 3 -6 -10 -23 -31 -39 -21 -15 -39 -31 -41 -35 -2 -5 -11 -8 -19 -8 -12
0 -13 3 -4 14 9 10 8 16 -4 26 -12 10 -14 7 -10 -24 4 -27 2 -34 -9 -30 -7 3
-16 -2 -20 -11 -4 -11 -12 -15 -23 -11 -10 4 -14 4 -10 0 10 -11 -81 -66 -95
-58 -6 4 -8 3 -5 -2 6 -11 -21 -24 -133 -66 -56 -21 -76 -25 -82 -15 -5 8 -8
7 -8 -5 0 -11 -13 -21 -37 -27 -102 -27 -134 -33 -140 -27 -3 3 -11 2 -18 -4
-6 -5 -36 -11 -67 -13 -31 -3 -60 -7 -64 -10 -22 -13 -310 -17 -434 -7 -74 7
-146 12 -159 11 -12 -1 -28 2 -34 6 -6 3 -37 8 -69 10 -32 1 -75 10 -94 18
-42 17 -55 19 -34 4 11 -7 6 -8 -20 -3 -19 3 -41 11 -47 16 -7 6 -19 8 -27 5
-23 -9 -169 13 -200 30 -16 9 -26 11 -22 5 8 -14 -53 -5 -68 9 -6 5 -15 9 -20
9 -6 0 -4 -5 4 -11 13 -9 12 -10 -3 -5 -9 3 -46 8 -82 12 -36 4 -65 10 -65 13
0 4 -18 6 -39 5 -30 -1 -38 1 -34 12 4 12 0 12 -21 4 -19 -7 -26 -6 -26 3 0 9
-2 9 -8 1 -5 -9 -46 -9 -152 -2 -80 5 -194 7 -253 4 -86 -5 -107 -4 -101 6 6
10 4 10 -7 2 -8 -6 -48 -14 -89 -18 -145 -12 -266 -28 -321 -42 -68 -17 -72
-17 -63 -1 4 6 -1 4 -12 -5 -11 -10 -42 -20 -68 -23 -26 -3 -55 -10 -64 -15
-34 -17 -173 -51 -184 -44 -7 4 -8 3 -4 -4 7 -11 -7 -16 -41 -15 -7 1 -13 -3
-13 -8 0 -5 -6 -9 -12 -9 -7 0 -64 -21 -126 -47 -95 -39 -115 -44 -124 -32 -8
12 -9 11 -5 -2 4 -12 -9 -23 -46 -40 -29 -12 -60 -22 -70 -22 -9 1 -15 -2 -13
-6 7 -10 -192 -103 -204 -96 -6 4 -9 1 -8 -5 4 -15 -83 -62 -102 -55 -8 4 -11
3 -7 -1 10 -11 -81 -66 -95 -58 -6 4 -8 3 -5 -3 4 -6 -29 -31 -75 -58 -64 -37
-83 -44 -90 -33 -8 10 -8 9 -4 -4 4 -12 -3 -23 -22 -35 -51 -31 -287 -187
-292 -192 -18 -21 -91 -62 -99 -56 -6 3 -9 0 -6 -7 3 -8 -7 -21 -22 -30 -16
-9 -86 -60 -156 -112 -71 -53 -134 -93 -139 -90 -7 4 -8 2 -4 -4 4 -6 -24 -33
-67 -65 -40 -30 -134 -103 -209 -163 -75 -60 -179 -143 -232 -184 -54 -41
-132 -103 -174 -137 -163 -132 -392 -301 -549 -405 -89 -60 -163 -110 -163
-112 0 -6 123 -63 152 -71 68 -19 193 -77 231 -107 20 -16 43 -23 85 -24 78
-4 134 -25 150 -59 8 -14 12 -29 9 -31 -9 -9 -309 100 -527 191 -74 31 -144
59 -155 61 -12 3 -53 -15 -105 -46 -198 -118 -554 -283 -852 -395 -457 -172
-1041 -310 -1487 -351 l-71 -7 0 -4681 c1 -4163 2 -4679 16 -4661 8 11 25 34
38 50 13 17 56 72 95 123 40 51 76 90 81 87 5 -3 12 0 16 6 4 8 3 9 -4 5 -22
-13 -12 8 17 38 16 17 51 56 78 86 164 186 514 517 534 505 5 -4 8 -2 7 4 -2
6 31 38 72 71 41 33 81 65 89 72 78 65 397 285 441 305 8 4 17 9 20 13 26 33
595 324 617 316 8 -3 12 -2 9 2 -3 5 16 18 42 29 668 290 1428 437 2167 419
392 -9 724 -49 1080 -131 581 -133 1171 -385 1675 -715 81 -53 307 -214 340
-242 8 -7 55 -46 105 -87 49 -40 101 -84 115 -96 14 -13 70 -64 125 -113 96
-86 219 -211 335 -338 92 -102 90 -100 74 -121 -13 -17 -15 -16 -41 17 -38 48
-130 147 -232 253 -47 48 -86 91 -86 96 0 5 -4 13 -9 18 -5 5 -6 3 -2 -5 9
-15 -10 -17 -19 -2 -4 6 -1 19 7 28 12 15 11 16 -5 3 -16 -13 -23 -10 -65 31
-26 24 -62 57 -80 71 -19 15 -30 27 -25 27 4 1 -2 6 -13 13 -42 23 -113 90
-107 100 3 6 1 7 -5 3 -6 -3 -66 36 -135 88 -135 102 -304 217 -462 313 -94
56 -438 243 -449 243 -3 0 -36 14 -73 31 -92 43 -189 83 -305 128 -54 21 -95
41 -90 46 4 5 1 5 -6 1 -6 -4 -58 8 -115 27 -425 143 -852 225 -1332 257 -633
41 -1352 -54 -1942 -256 -57 -20 -108 -32 -114 -28 -7 4 -9 3 -6 -3 8 -12 -71
-35 -86 -26 -6 3 -7 2 -4 -4 4 -6 -25 -22 -66 -38 -40 -15 -94 -38 -122 -50
-27 -12 -75 -33 -105 -46 -30 -12 -115 -53 -189 -90 -74 -38 -139 -65 -144
-62 -6 3 -7 1 -3 -5 4 -7 -2 -16 -16 -21 -38 -14 -271 -153 -336 -199 -17 -13
-37 -20 -43 -16 -8 4 -9 3 -5 -4 4 -6 -4 -16 -16 -23 -19 -9 -167 -113 -203
-141 -70 -56 -101 -76 -110 -71 -5 4 -7 3 -3 -1 7 -8 -11 -25 -158 -146 -110
-91 -210 -185 -342 -319 -63 -64 -118 -115 -123 -114 -5 2 -8 -1 -6 -6 2 -8
-45 -68 -114 -146 -19 -22 -71 -84 -114 -138 -43 -54 -80 -95 -83 -93 -3 3 1
12 8 21 7 8 8 15 2 15 -13 0 -23 -26 -16 -43 3 -8 -3 -20 -12 -28 -16 -13 -17
-12 -12 9 4 13 2 20 -4 16 -5 -3 -7 -16 -4 -28 4 -15 -3 -31 -19 -49 l-25 -26
0 -511 0 -510 4506 0 4505 0 -7 23 c-24 78 -134 305 -218 451 -50 86 -72 147
-47 131 5 -3 11 1 13 9 7 33 38 -18 155 -254 123 -249 145 -297 158 -337 l6
-23 3565 0 c3005 0 3564 2 3564 14 0 27 41 66 70 66 31 0 60 -30 60 -62 0 -17
25 -18 430 -18 370 0 430 2 430 15 0 23 41 55 71 55 30 0 54 -19 64 -50 6 -20
16 -20 426 -20 391 0 420 1 426 18 20 56 77 69 118 27 14 -13 25 -29 25 -35 0
-7 133 -10 416 -10 l416 0 28 30 c38 41 82 41 118 0 l26 -30 278 0 c162 0 278
4 278 9 0 5 -6 11 -12 13 -7 3 -13 22 -13 47 0 52 31 80 86 81 61 0 95 -62 66
-120 l-15 -30 84 0 c48 0 84 4 84 10 0 13 54 40 79 40 11 0 33 -11 49 -25 l30
-25 266 0 267 0 -6 34 c-8 38 14 90 40 100 79 30 159 -39 126 -110 l-11 -24
74 0 c55 0 77 4 87 16 31 38 118 37 133 -1 4 -13 49 -15 275 -15 l269 0 -5 40
c-5 34 -2 43 25 70 32 32 68 38 105 18 35 -18 46 -40 47 -85 l0 -43 67 0 c45
0 72 5 83 15 23 21 83 22 114 2 22 -15 60 -17 286 -17 l260 0 0 39 c0 50 43
91 97 91 48 0 93 -45 93 -94 l0 -36 68 0 c43 1 74 6 86 15 25 19 53 19 90 0
23 -12 78 -15 293 -15 l264 0 -3 22 c-2 16 -18 30 -48 45 -43 21 -46 21 -60 4
-41 -47 -113 -55 -157 -17 -24 21 -28 31 -26 75 l1 51 -46 22 c-26 13 -50 27
-53 31 -3 5 -9 -8 -12 -27 -8 -49 -30 -68 -86 -74 -44 -4 -50 -2 -74 28 -37
44 -36 92 2 131 l29 29 -48 29 c-27 16 -57 37 -67 45 -10 8 -43 33 -73 56 -30
22 -93 73 -140 114 -71 61 -92 74 -130 79 -48 6 -75 30 -87 75 -6 24 -25 44
-90 95 -22 18 -22 18 -37 -18 -26 -60 -92 -70 -142 -20 -35 35 -32 79 7 118
18 17 27 33 21 35 -6 2 -45 28 -87 58 -41 30 -79 54 -84 54 -5 0 -11 3 -13 8
-3 8 -62 43 -118 70 -19 9 -37 19 -40 22 -10 11 -124 62 -208 94 -188 71 -358
108 -587 127 -168 13 -230 10 -230 -11 -1 -33 -17 -58 -45 -70 -49 -20 -101 8
-104 57 l-1 25 -95 -6 c-52 -4 -174 -16 -270 -27 -96 -10 -178 -19 -182 -19
-4 0 -6 -18 -5 -39 2 -50 -24 -81 -68 -81 -41 0 -75 32 -75 71 l0 30 -63 -6
c-34 -3 -91 -10 -127 -15 -36 -5 -123 -14 -195 -20 -182 -16 -200 -19 -186
-33 18 -18 13 -75 -9 -97 -55 -55 -134 8 -107 85 6 19 3 20 -81 18 -48 -1
-100 -6 -115 -12 -28 -11 -66 -9 -88 5 -7 4 -44 6 -83 5 -198 -5 -691 80 -861
149 -11 4 -48 18 -82 31 -34 13 -60 26 -58 29 2 3 -13 5 -33 6 -20 0 -38 6
-40 12 -2 7 -9 12 -16 12 -7 0 -36 11 -64 25 -29 14 -55 25 -58 25 -8 0 -111
50 -381 183 -115 57 -200 104 -196 110 3 6 1 7 -4 4 -10 -6 -86 24 -123 48 -8
6 -41 22 -73 36 -31 14 -54 29 -50 32 3 4 -2 7 -12 7 -10 0 -46 15 -81 34 -34
19 -65 32 -69 28 -3 -3 -3 1 1 11 4 12 1 17 -10 17 -9 0 -16 5 -16 10 0 6 7
10 16 10 8 0 12 5 9 10 -5 8 -11 7 -20 0 -10 -8 -19 -8 -35 0 -16 9 -20 19
-18 51 1 27 6 39 17 39 14 0 14 2 1 9 -19 13 -30 4 -30 -25 0 -27 -14 -31 -36
-10 -19 20 -18 36 4 36 10 0 23 5 29 11 9 9 21 5 50 -12 21 -13 40 -24 43 -25
16 -3 47 -19 63 -32 9 -8 17 -12 17 -9 0 6 107 -47 119 -59 2 -2 -7 -8 -20
-13 -17 -6 -33 -4 -52 6 -16 8 -27 17 -24 20 3 2 14 0 25 -6 42 -23 45 -10 3
14 -50 29 -58 31 -41 10 9 -11 10 -15 1 -15 -8 0 -7 -5 3 -15 8 -8 19 -15 23
-15 5 0 20 -10 33 -22 18 -17 22 -18 17 -5 -3 9 -2 17 4 17 5 0 12 -8 15 -17
16 -51 25 -59 58 -55 19 2 37 -1 40 -7 10 -15 37 -14 33 2 -1 7 7 11 23 9 25
-3 24 -3 -3 12 -21 11 -34 13 -47 6 -10 -6 -32 -10 -48 -10 -24 0 -30 6 -39
35 -10 30 -9 35 8 40 12 4 33 -2 52 -13 17 -11 79 -44 137 -72 106 -53 143
-71 237 -121 49 -26 51 -27 26 -34 -14 -3 -23 -8 -21 -10 2 -3 19 0 37 5 28 8
39 5 80 -21 27 -16 51 -29 54 -29 3 0 52 -22 109 -49 57 -26 114 -52 127 -56
19 -6 21 -9 10 -16 -9 -7 -5 -7 14 -3 17 4 27 2 27 -5 0 -6 5 -11 11 -11 22 0
178 -63 174 -70 -2 -4 7 -5 20 -2 14 2 25 0 25 -6 0 -6 8 -11 18 -11 21 0 214
-56 239 -70 11 -5 25 -9 33 -9 8 1 28 0 44 0 24 -2 26 -4 16 -16 -10 -13 -7
-13 20 -3 25 9 33 9 39 -2 5 -7 13 -11 18 -8 6 4 37 2 69 -3 256 -40 698 -42
1019 -4 72 8 175 19 230 24 55 5 132 14 170 19 39 6 131 17 205 26 205 23 220
26 220 33 0 4 37 7 82 7 502 1 618 5 618 22 0 15 1 15 13 -2 10 -12 22 -16 40
-13 15 3 28 1 29 -4 3 -9 112 -29 173 -33 51 -3 106 -17 190 -47 44 -17 100
-33 125 -38 25 -4 54 -11 65 -15 16 -5 17 -5 5 4 -13 9 -12 12 7 17 13 4 20
10 18 15 -3 4 -17 4 -31 -1 -37 -14 -52 -12 -30 5 44 33 101 1 108 -60 3 -26
13 -35 75 -68 l71 -37 21 34 c25 41 54 50 92 30 31 -16 45 -50 35 -89 -6 -25
-29 -34 -41 -15 -3 6 -11 10 -16 10 -16 0 50 -53 156 -125 55 -38 150 -107
210 -154 61 -47 127 -97 148 -111 20 -14 37 -28 37 -31 0 -10 132 -115 153
-122 15 -6 17 -3 11 15 -6 21 -5 22 11 8 14 -11 17 -11 11 -1 -18 28 53 43 86
17 36 -27 40 -71 13 -138 -5 -13 27 -38 152 -121 354 -233 683 -357 1073 -402
155 -18 160 -18 139 -2 -69 53 -42 160 44 174 30 4 43 1 72 -21 28 -22 35 -34
35 -61 0 -44 -17 -80 -44 -93 -16 -8 -3 -11 60 -11 81 -1 82 -1 94 29 33 79
139 80 179 2 10 -18 18 -22 44 -18 185 30 245 40 327 57 128 26 128 26 145 60
30 56 111 74 155 34 15 -14 28 -12 128 20 l112 36 0 50 c0 36 5 54 20 69 29
29 68 42 102 35 29 -7 72 -43 80 -67 3 -9 35 0 116 32 62 24 112 46 112 49 0
4 -7 15 -15 25 -19 26 -19 96 0 123 22 31 78 47 117 34 38 -13 68 -47 68 -76
0 -27 10 -37 24 -27 6 5 57 28 114 51 89 38 124 61 92 61 -16 0 -40 56 -40 93
0 28 8 42 37 67 31 28 41 31 76 27 49 -7 88 -43 96 -90 l6 -35 123 60 122 59
-30 25 c-24 21 -30 34 -30 65 0 79 55 124 130 108 51 -11 81 -44 82 -89 1 -30
8 -37 22 -22 4 4 11 7 14 7 4 0 51 22 104 49 l98 48 -18 24 c-9 13 -20 24 -24
24 -5 0 -8 20 -8 45 0 37 5 50 35 80 38 37 70 44 119 25 31 -11 68 -68 62 -92
-4 -19 13 -24 30 -10 5 5 37 19 72 33 34 13 62 27 62 31 0 5 6 8 14 8 7 0 26
6 41 14 21 11 24 16 13 23 -28 16 -48 58 -48 99 0 37 5 47 37 73 54 45 102 43
149 -6 29 -30 35 -42 32 -70 -4 -29 -2 -32 17 -27 26 8 35 23 27 43 -5 13 -8
11 -10 -6 -2 -13 -8 -23 -14 -23 -5 0 -8 7 -5 15 7 18 -10 52 -43 85 -21 21
-35 25 -82 25 -54 0 -59 -2 -93 -39 -29 -32 -35 -45 -30 -68 4 -17 2 -28 -4
-28 -6 0 -11 7 -11 15 0 8 -5 15 -10 15 -7 0 -7 -6 0 -19 8 -17 -1 -71 -12
-71 -2 0 -3 19 -3 42 0 36 -3 43 -25 48 l-25 6 25 8 c20 7 22 9 8 13 -10 2
-34 -8 -53 -23 -36 -27 -90 -35 -118 -17 -7 4 -21 6 -32 5 -17 -2 -18 -1 -5 8
12 9 12 11 1 8 -29 -8 -21 -27 13 -34 20 -3 36 -10 36 -15 0 -12 -27 -11 -35
1 -3 5 -12 7 -20 4 -24 -9 -7 -24 28 -25 18 0 26 -3 19 -6 -10 -4 -10 -8 0
-21 11 -13 9 -13 -19 1 -36 19 -47 21 -39 9 3 -5 -15 -8 -40 -7 -27 1 -49 7
-55 16 -5 8 -9 9 -9 3 0 -7 -15 -14 -34 -16 -31 -3 -34 -2 -31 22 5 33 -3 60
-18 60 -8 0 -8 -3 1 -12 15 -15 16 -38 2 -38 -5 0 -10 7 -10 15 0 8 -9 19 -20
25 -18 10 -17 7 4 -25 33 -49 29 -120 -9 -153 -54 -46 -167 -14 -177 50 -2 16
-11 22 -33 23 -16 0 -36 -4 -42 -11 -7 -7 -22 -10 -33 -7 -11 3 -20 0 -20 -6
0 -6 9 -11 20 -11 11 0 20 -4 20 -10 0 -5 -6 -10 -12 -10 -9 0 -8 -4 2 -10 11
-7 4 -10 -27 -10 -24 0 -43 5 -43 10 0 13 -47 13 -55 0 -8 -14 -92 -11 -133 4
-32 11 -31 12 34 14 41 1 71 6 75 14 4 7 11 9 16 5 12 -13 -19 -27 -62 -28
-34 -2 -35 -3 -10 -6 35 -6 132 25 159 49 21 19 16 36 -6 22 -7 -5 -22 -7 -33
-6 -19 2 -19 2 -3 -11 15 -12 7 -13 -60 -9 -42 3 -78 9 -80 13 -2 5 -41 9 -87
9 -75 0 -144 17 -130 32 3 3 -3 11 -12 19 -16 13 -17 12 -4 -4 12 -15 10 -17
-22 -17 -19 0 -43 -3 -52 -6 -15 -6 -17 -1 -14 42 l4 49 -32 -3 c-24 -3 -33
-9 -33 -23 0 -10 5 -19 10 -19 15 0 12 -36 -5 -50 -8 -7 -15 -20 -15 -29 -1
-13 -3 -13 -16 4 -8 11 -20 19 -25 17 -5 -1 -9 10 -9 24 0 23 2 25 16 13 14
-11 15 -10 12 11 -2 17 -10 25 -23 26 -11 1 -28 5 -37 9 -22 9 -24 -8 -3 -25
8 -7 15 -21 15 -31 0 -10 4 -20 9 -23 14 -9 -17 -63 -49 -86 -17 -12 -44 -20
-68 -20 -33 0 -45 6 -66 31 -14 17 -26 38 -26 48 0 18 -18 41 -33 41 -5 0 -7
-10 -4 -22 3 -13 1 -32 -3 -43 -7 -16 -9 -12 -9 18 -1 21 6 51 14 67 19 37 24
38 17 5 -2 -15 0 -25 7 -25 6 0 11 5 11 12 0 6 7 19 16 29 20 22 10 39 -22 39
-19 0 -29 -8 -37 -30 -6 -16 -14 -30 -18 -30 -3 0 -4 -22 -1 -50 4 -43 2 -50
-13 -50 -15 0 -17 7 -13 48 3 31 0 52 -8 59 -9 9 -13 9 -17 -1 -11 -29 -107
-61 -107 -36 0 6 -8 10 -18 10 -36 0 -55 36 -57 103 -1 34 0 56 3 48 3 -10 9
-8 22 9 14 19 28 24 67 24 68 1 101 -30 110 -102 6 -52 23 -83 23 -43 0 12 4
21 9 21 6 0 9 8 9 17 0 10 3 51 7 92 7 68 6 74 -9 68 -10 -4 -20 -7 -22 -7
-10 0 -3 -49 7 -52 8 -3 8 -19 1 -58 l-11 -55 3 47 c3 39 1 46 -13 41 -13 -4
-13 -3 -2 5 15 11 7 32 -14 32 -7 0 -15 4 -17 8 -2 4 -38 5 -81 2 -87 -6 -97
-4 -97 16 0 15 16 19 24 6 3 -5 36 -9 73 -9 37 0 55 2 38 4 -53 7 -63 13 -41
25 15 8 21 8 24 0 2 -7 13 -12 23 -12 11 0 17 4 14 10 -3 5 0 7 8 5 7 -3 24
-1 38 4 23 9 22 10 -11 11 -28 1 -31 3 -15 9 18 7 17 9 -12 25 -35 18 -63 61
-63 97 0 12 11 37 26 56 14 18 21 33 15 33 -5 0 -17 -10 -26 -22 -11 -16 -18
-19 -23 -11 -4 7 -8 -25 -8 -70 0 -47 3 -71 7 -57 4 14 8 22 9 18 4 -13 7 -28
9 -36 0 -5 11 -13 23 -19 14 -6 18 -12 11 -16 -6 -4 -18 0 -26 8 -19 18 -38
20 -32 3 7 -18 -6 -34 -35 -43 -21 -7 -23 -5 -13 6 11 14 16 39 14 74 -1 16
-3 17 -11 5 -7 -11 -11 -4 -16 28 -6 39 -24 60 -24 28 0 -21 -21 -31 -31 -15
-6 10 -9 11 -9 2 0 -7 -9 -13 -21 -13 -11 0 -18 4 -14 9 3 6 -12 18 -32 27
-45 21 -68 42 -79 75 -21 65 12 112 93 130 30 7 56 15 58 19 2 4 -18 12 -45
19 l-50 13 2 111 c2 110 2 111 8 37 l6 -75 2 82 2 82 -27 4 c-20 3 -15 4 15 6
23 0 42 -3 42 -9 0 -5 8 -7 18 -4 15 5 14 3 -2 -10 -30 -25 -11 -31 23 -7 21
16 42 21 74 19 25 -2 43 -6 41 -10 -10 -15 15 -16 27 -1 8 10 9 14 2 10 -6 -4
-14 -3 -18 3 -3 5 -42 10 -86 10 -46 0 -79 4 -79 10 0 6 -17 8 -42 4 -27 -3
-38 -2 -30 4 9 6 4 9 -17 9 -29 0 -29 -1 -26 -44 4 -51 12 -64 26 -43 9 12 10
12 5 -3 -3 -10 -6 -21 -6 -23 0 -13 -20 -1 -25 16 l-6 20 -26 -20 c-33 -26
-83 -26 -116 0 -28 22 -43 80 -28 109 9 17 5 20 -35 30 -34 9 -50 9 -67 0 -21
-12 -21 -11 -7 6 13 16 13 18 0 13 -8 -2 -20 -15 -27 -29 -17 -34 -42 -49 -80
-49 -41 0 -83 38 -83 75 0 17 -6 25 -17 26 -15 0 -15 2 2 9 l20 9 -20 1 c-11
2 -23 2 -27 1 -5 0 -8 3 -8 8 0 13 -81 25 -89 14 -33 -52 -151 -35 -151 22 0
8 -6 15 -12 15 -10 0 -9 3 1 9 10 6 3 12 -25 22 -22 7 -43 14 -49 15 -64 15
-72 15 -84 0 -31 -37 -110 -9 -127 44 -10 29 -20 37 -75 58 -59 22 -66 22 -90
8 -60 -35 -129 -7 -129 52 0 25 -8 32 -70 62 l-69 34 -21 -27 c-51 -65 -169 1
-130 73 9 17 1 24 -73 62 l-83 43 4 -27 c5 -34 -36 -78 -73 -78 -31 0 -75 41
-75 70 0 31 18 60 43 69 24 9 32 3 -103 81 -89 52 -372 237 -450 294 -93 69
-281 217 -350 276 -358 305 -759 743 -989 1079 -313 458 -508 824 -678 1271
-68 178 -135 372 -130 377 2 2 17 0 34 -3 28 -6 32 -12 63 -107 176 -548 478
-1124 843 -1612 278 -372 629 -738 979 -1024 150 -122 278 -213 314 -222 19
-6 34 -16 34 -24 0 -23 167 -134 425 -283 137 -80 496 -262 515 -262 6 0 25
-7 42 -16 18 -9 51 -17 75 -18 35 -1 49 -8 73 -34 16 -18 35 -32 43 -32 8 0
40 -11 71 -25 45 -20 61 -23 77 -14 26 13 83 -5 103 -33 8 -11 44 -31 81 -44
53 -19 77 -23 120 -18 52 6 56 5 84 -25 27 -29 79 -47 186 -67 11 -2 43 -8 70
-14 28 -7 57 -12 65 -13 8 -1 18 -6 21 -10 3 -5 27 -9 53 -10 25 -1 46 -4 46
-7 0 -4 16 -4 36 -2 20 3 39 0 43 -5 7 -10 124 -36 156 -34 11 0 40 3 65 5 25
3 36 3 25 0 -34 -10 -35 -19 -2 -19 24 0 31 5 29 17 -3 22 32 29 57 11 24 -16
27 -7 6 21 -8 11 -15 39 -15 62 0 34 5 47 28 66 45 38 50 56 5 20 -49 -39 -70
-41 -79 -6 -5 19 -9 22 -15 12 -7 -10 -9 -9 -9 4 0 9 6 19 13 22 6 3 3 4 -7 3
-13 -1 -22 6 -27 23 -7 25 -7 25 -8 2 -1 -13 -6 -32 -12 -43 -7 -14 -7 -29 0
-50 8 -23 7 -29 -4 -29 -9 0 -12 6 -8 18 5 13 1 12 -16 -5 -30 -32 -63 -38
-104 -18 -35 16 -59 56 -54 85 7 36 19 59 33 64 8 3 13 9 11 13 -3 5 20 6 50
5 49 -4 56 -7 74 -35 19 -32 19 -32 19 -6 0 14 -10 35 -21 48 -17 18 -20 31
-16 62 5 40 0 48 -20 28 -7 -7 -10 -2 -10 18 0 15 2 22 4 16 5 -14 33 -18 33
-5 0 4 -9 13 -20 20 -16 9 -20 23 -20 61 0 42 4 53 26 70 31 24 68 27 107 7
15 -8 27 -11 27 -6 0 4 -6 11 -12 13 -10 4 -10 8 1 16 11 7 2 8 -28 4 -24 -3
-46 -2 -50 4 -3 5 -15 15 -26 21 -11 6 -14 12 -7 12 14 0 17 40 2 40 -7 0 -10
72 -10 205 1 136 5 205 12 205 5 0 8 6 5 14 -8 19 3 28 19 15 10 -8 15 -3 22
23 6 24 14 32 28 31 10 -1 13 0 7 3 -7 3 -13 13 -13 22 0 15 2 15 10 2 8 -13
10 -13 10 2 0 9 7 24 16 33 9 9 13 19 10 23 -4 3 -11 0 -16 -8 -7 -12 -13 -10
-30 9 -11 14 -22 22 -25 19 -3 -3 -8 -30 -12 -59 -7 -69 -33 -99 -82 -99 -41
1 -71 19 -71 44 0 9 -4 16 -10 16 -15 0 -12 32 5 54 8 10 12 23 9 28 -7 11 14
38 29 38 5 0 2 -9 -8 -20 -10 -11 -13 -20 -7 -20 7 0 12 5 12 10 0 20 73 11
98 -12 l25 -23 -7 27 c-4 17 -2 28 7 31 6 3 -10 4 -38 2 -27 -1 -35 0 -17 2
44 6 41 22 -5 22 -21 0 -51 5 -68 10 -26 9 -24 10 17 5 74 -9 88 -1 88 53 0
41 -2 45 -21 40 -14 -4 -19 -1 -16 7 3 7 2 31 -3 54 -5 27 -3 43 4 47 8 3 7 7
-1 11 -7 3 -13 10 -13 16 0 6 6 6 15 -2 12 -10 18 -10 31 1 23 19 76 12 96
-12 l18 -21 0 26 c0 18 -4 24 -15 20 -8 -4 -15 -1 -15 6 0 6 -5 8 -10 5 -5 -3
-10 -2 -10 3 0 12 -39 4 -58 -11 -7 -5 -15 -7 -19 -3 -3 3 -1 6 5 6 7 0 12 9
12 21 0 21 36 58 57 59 6 0 19 9 27 21 8 12 19 19 24 15 5 -3 24 -1 42 4 23 7
38 6 47 -1 10 -9 15 -6 22 12 4 13 6 30 4 36 -7 17 14 17 21 1 4 -7 4 -3 2 9
-5 30 11 40 17 11 3 -13 3 4 0 37 -6 69 -23 94 -58 87 -14 -2 -22 -8 -19 -13
3 -5 -10 -6 -28 -3 -54 9 -56 11 -50 39 4 22 9 26 28 22 13 -2 29 2 35 9 13
16 39 19 39 4 0 -5 -4 -10 -10 -10 -5 0 -10 -4 -10 -10 0 -5 9 -10 20 -10 11
0 20 -3 20 -8 0 -4 9 -13 20 -20 19 -11 20 -10 20 27 0 37 -1 38 -42 44 -24 4
-59 11 -80 17 -32 9 -36 14 -36 45 0 23 5 35 17 38 14 4 14 5 0 6 -11 1 -15
10 -13 36 2 21 -1 35 -8 35 -6 0 -9 2 -6 5 13 13 35 -7 30 -27 -3 -13 1 -26
13 -34 15 -11 16 -16 5 -29 -12 -14 -11 -18 1 -26 15 -10 49 -12 49 -4 0 4 -7
20 -16 36 -11 23 -12 34 -4 44 8 9 8 15 0 20 -5 3 -10 -1 -10 -9 0 -8 -5 -18
-11 -22 -8 -5 -10 1 -7 20 3 14 2 26 -2 26 -3 0 -15 8 -26 18 -10 9 -32 24
-49 32 -16 8 -34 21 -38 28 -5 7 -18 11 -30 8 -12 -3 -16 -3 -9 0 14 7 -42 54
-64 54 -6 0 -14 6 -17 13 -2 6 -29 25 -58 40 -30 16 -59 36 -66 44 -7 8 -27
16 -45 17 -22 1 -34 7 -36 18 -2 10 -12 20 -23 23 -10 4 -19 11 -19 16 0 5 -4
9 -9 9 -5 0 -39 18 -75 40 -37 22 -91 54 -121 70 -81 44 -98 54 -115 66 -8 6
-74 42 -147 79 -73 38 -129 73 -126 78 3 6 1 7 -4 4 -14 -9 -136 51 -128 62 3
5 -5 7 -17 3 -11 -3 -19 -1 -16 4 4 5 -5 10 -19 11 -14 0 -28 5 -32 11 -8 12
-99 52 -118 52 -8 0 -12 4 -9 9 3 5 -10 12 -29 15 -19 4 -35 10 -35 14 0 4
-34 20 -74 37 -41 16 -74 32 -74 35 1 17 -3 24 -10 13 -5 -8 -21 -5 -59 13
-29 13 -64 26 -78 30 -14 3 -25 10 -25 16 0 5 5 6 11 3 15 -10 105 -17 96 -9
-4 4 -21 7 -39 6 -22 0 -28 2 -18 8 8 5 -1 7 -26 4 -21 -2 -48 0 -59 5 -36 16
-110 43 -129 47 -10 2 -24 11 -31 20 -6 9 -25 18 -41 20 -33 3 -155 43 -167
54 -5 4 0 15 10 25 17 18 17 18 -7 10 -34 -11 -90 -9 -103 4 -8 8 -5 11 9 11
15 1 14 4 -9 16 -15 8 -38 13 -50 10 -12 -3 -16 -3 -9 0 16 7 -3 34 -24 34 -8
0 -14 5 -14 10 0 7 8 6 23 -2 21 -12 26 -13 55 -16 7 -1 10 -7 6 -13 -4 -7 0
-9 14 -5 11 4 23 2 27 -4 3 -5 16 -10 28 -10 20 0 20 0 1 -15 -20 -15 -11 -18
20 -6 21 8 123 -23 118 -36 -3 -7 27 -17 78 -27 40 -7 70 -19 70 -28 0 -6 -8
-7 -17 -3 -34 14 -61 17 -67 7 -4 -6 2 -8 14 -5 11 3 27 0 35 -7 8 -7 22 -9
31 -6 20 8 86 -12 79 -24 -5 -8 19 -20 38 -19 7 0 3 4 -8 9 -11 5 -15 9 -9 9
6 1 56 -19 110 -43 55 -23 121 -51 147 -61 28 -10 46 -23 43 -30 -2 -6 2 -12
10 -12 7 0 11 4 8 9 -3 4 6 3 20 -3 14 -7 23 -16 20 -20 -3 -5 2 -6 11 -3 11
5 14 2 9 -12 -5 -15 -4 -16 4 -5 9 12 14 12 36 -2 14 -9 32 -17 41 -17 10 0
13 -5 9 -12 -4 -7 -3 -8 4 -4 18 11 37 -4 21 -16 -10 -7 -8 -8 7 -3 30 8 333
-143 313 -157 -10 -7 -9 -8 6 -4 12 3 36 -3 55 -14 19 -11 56 -29 82 -41 26
-12 45 -26 41 -31 -3 -6 0 -8 8 -6 8 3 25 -3 39 -12 14 -10 52 -32 85 -49 33
-17 107 -60 165 -96 58 -35 121 -72 141 -83 44 -25 320 -204 411 -267 37 -26
77 -53 90 -59 29 -16 262 -192 348 -264 74 -61 82 -68 166 -138 210 -175 413
-368 699 -665 375 -389 792 -969 1000 -1389 43 -86 168 -372 191 -435 9 -27
19 -51 20 -53 1 -2 80 26 176 63 271 104 417 152 643 210 239 62 334 79 560
101 87 8 161 16 162 18 2 1 2 2616 1 5809 l-3 5806 -60 -44 c-33 -24 -64 -48
-70 -52 -5 -5 -50 -40 -99 -78 -148 -116 -288 -235 -333 -283 -28 -30 -47 -42
-58 -38 -9 3 -14 2 -11 -2 8 -13 -99 -114 -110 -105 -5 5 -6 4 -2 -1 10 -11
-11 -38 -23 -30 -5 3 -12 -2 -16 -12 -3 -9 -26 -35 -51 -58 -25 -22 -51 -47
-58 -54 -8 -7 -18 -11 -23 -7 -5 3 -13 0 -17 -6 -4 -8 -3 -9 4 -5 24 14 11 -8
-20 -35 -47 -43 -213 -203 -413 -399 -337 -331 -648 -612 -870 -786 -262 -206
-602 -443 -800 -557 -33 -19 -116 -67 -185 -107 -300 -174 -704 -357 -1055
-477 -1022 -350 -2253 -398 -3405 -132 -324 75 -750 201 -925 274 -44 18 -120
49 -170 68 -247 95 -630 281 -883 429 -45 26 -84 48 -87 48 -19 0 -482 309
-650 435 -307 228 -617 508 -854 770 -166 183 -241 271 -355 415 -33 41 -63
77 -66 80 -3 3 -22 27 -41 55 -18 27 -42 59 -53 70 -44 49 -67 85 -60 96 4 7
3 9 -3 6 -6 -4 -16 0 -23 8 -7 8 -9 15 -4 15 5 0 -2 7 -14 16 -14 9 -21 22
-18 31 3 8 2 11 -3 8 -10 -6 -124 152 -124 173 0 6 -2 10 -5 7 -7 -7 -24 14
-104 130 -109 157 -124 179 -127 190 -2 6 -12 16 -22 23 -11 7 -19 19 -19 25
0 7 7 3 15 -7 8 -11 15 -15 15 -9 0 13 -25 35 -32 27 -3 -3 -20 16 -37 41 -17
26 -26 43 -19 39 7 -4 3 3 -10 15 -35 34 -54 69 -46 82 4 8 3 9 -4 5 -13 -8
-16 6 -4 18 4 4 7 18 7 31 1 17 -2 21 -10 15 -7 -6 -14 -8 -16 -5 -3 2 -5 -4
-5 -15 0 -15 3 -17 15 -7 11 10 13 9 10 -2 -9 -25 -25 -23 -44 5 -11 17 -12
24 -4 19 8 -5 2 4 -13 20 -26 25 -39 53 -20 41 4 -2 8 4 8 15 0 18 -2 18 -12
5 -10 -14 -15 -10 -40 26 -16 24 -29 48 -30 53 -1 19 -16 56 -21 52 -2 -3 1
-16 8 -29 15 -29 9 -24 -34 34 -20 25 -33 49 -30 52 4 3 1 6 -6 6 -7 0 -9 5
-5 12 11 17 13 58 4 58 -14 0 -21 -18 -8 -22 12 -4 3 -28 -12 -28 -5 0 -11 8
-15 19 -3 10 -16 31 -29 46 -14 16 -30 40 -38 54 -7 14 -22 36 -33 48 -11 12
-31 38 -45 58 -14 20 -30 42 -35 48 -31 35 -77 107 -79 123 -2 10 -7 19 -13
19 -14 0 -63 60 -63 76 0 8 6 5 15 -7 8 -11 15 -14 15 -6 0 22 17 12 30 -18 7
-16 19 -30 27 -30 8 0 11 5 8 10 -3 6 -2 10 4 10 18 0 21 -17 6 -30 -18 -15
-10 -55 18 -90 14 -18 18 -19 13 -6 -9 25 12 48 37 40 19 -6 19 -5 -3 25 -12
18 -20 34 -17 37 5 6 152 -184 224 -291 23 -33 50 -70 62 -82 12 -12 21 -25
21 -28 0 -4 14 -27 31 -51 25 -36 28 -48 19 -59 -8 -9 -8 -15 -2 -15 6 0 13 6
15 13 4 9 8 8 16 -3 14 -20 14 -33 -1 -24 -7 4 -8 3 -4 -5 4 -6 12 -8 18 -5 6
4 8 -2 4 -17 -3 -13 -3 -18 0 -11 9 20 27 14 21 -7 -3 -14 -1 -18 9 -14 8 3
14 -1 14 -11 0 -9 3 -16 8 -16 4 0 35 -42 70 -92 35 -51 83 -120 107 -153 25
-33 48 -67 52 -75 4 -8 11 -19 15 -25 5 -5 41 -55 80 -110 39 -55 74 -102 77
-105 4 -3 22 -30 41 -60 19 -30 39 -60 45 -67 5 -7 15 -18 21 -26 6 -7 42 -55
79 -107 317 -439 777 -963 1045 -1190 60 -51 149 -128 160 -140 7 -7 139 -112
171 -136 282 -211 267 -200 409 -294 58 -38 110 -73 116 -78 6 -5 43 -29 83
-53 39 -24 84 -52 99 -61 15 -9 43 -25 62 -36 121 -67 156 -86 160 -92 6 -8
486 -247 567 -283 35 -15 67 -27 73 -27 6 0 21 -6 33 -14 37 -24 329 -136 338
-130 5 3 9 11 9 19 0 7 4 15 8 17 15 6 102 189 96 200 -4 6 -2 8 3 5 12 -7 53
55 53 79 0 8 4 14 9 14 5 0 24 26 42 58 18 31 37 62 41 67 4 6 47 69 94 140
203 306 430 579 725 874 165 164 172 171 324 300 143 122 137 116 235 191 206
157 358 259 631 423 283 170 670 344 1052 473 434 147 803 225 1322 281 228
24 821 24 1065 0 222 -23 528 -68 655 -97 299 -70 440 -108 635 -172 117 -38
399 -145 500 -190 25 -11 120 -56 212 -100 l167 -81 69 59 c38 32 86 73 107
89 21 17 43 35 49 40 6 6 33 28 61 50 27 22 55 45 61 50 6 6 73 55 148 110
l136 100 0 1957 c0 1277 -3 1958 -10 1958 -10 0 -203 -76 -335 -133 -346 -148
-414 -182 -1825 -894 -366 -184 -460 -230 -785 -378 -104 -48 -341 -157 -525
-242 -1106 -513 -1623 -686 -2340 -782 -975 -131 -1967 -96 -2910 103 -688
145 -1311 350 -1971 649 -213 97 -446 216 -744 382 -53 29 -336 199 -370 222
-11 7 -89 58 -173 114 -192 125 -436 300 -612 438 -141 111 -378 305 -395 325
-6 6 -48 45 -95 86 -81 72 -246 228 -354 335 -165 164 -440 409 -566 505 -25
19 -47 37 -50 40 -9 10 -154 116 -215 157 -389 262 -762 423 -1160 502 -212
42 -371 54 -644 48 -141 -2 -290 -10 -331 -16 -298 -47 -420 -70 -685 -126
-665 -142 -1003 -186 -1320 -171 -158 7 -345 30 -373 45 -11 6 -22 8 -25 5 -8
-8 -204 41 -320 80 -222 76 -235 81 -511 225 -85 44 -261 154 -276 172 -3 4
-23 16 -45 27 -22 11 -53 33 -70 49 -16 16 -47 41 -68 56 -21 16 -34 33 -31
39 4 7 2 8 -5 4 -15 -10 -113 72 -104 86 3 7 1 8 -6 4 -18 -12 -214 169 -431
399 -119 126 -212 246 -171 220 5 -3 12 -1 16 5 4 7 -1487 10 -4574 10 l-4581
0 0 -3468z m1885 1572 c56 -61 12 -164 -70 -164 -52 0 -70 22 -70 87 0 30 5
57 11 61 6 4 13 15 17 25 11 29 82 23 112 -9z m11633 -114 c-2 -33 -1 -60 4
-60 4 0 9 8 9 18 1 9 5 -3 9 -28 7 -39 4 -73 -14 -225 -2 -16 -7 -70 -11 -120
-4 -49 -11 -97 -16 -106 -4 -9 -6 -19 -3 -22 6 -6 -24 -210 -59 -397 -13 -69
-26 -120 -29 -115 -2 6 -3 4 -1 -4 5 -20 -20 -131 -28 -125 -4 2 -5 -4 -3 -13
3 -10 -7 -63 -21 -118 -14 -55 -25 -108 -25 -117 0 -10 -7 -45 -17 -78 -16
-58 -18 -60 -49 -60 l-32 0 15 58 c8 31 18 62 22 67 8 10 27 83 52 202 7 34
17 59 22 56 6 -3 7 -1 3 5 -4 7 9 92 28 189 45 225 66 348 66 385 0 16 4 27 9
24 5 -4 7 2 5 11 -3 10 2 68 11 128 20 136 24 174 24 248 1 42 4 56 12 51 8
-4 9 -3 5 5 -8 13 3 201 11 201 3 0 3 -27 1 -60z m-483 -2337 c-10 -27 -23
-61 -30 -78 -7 -16 -25 -61 -40 -100 -47 -117 -142 -322 -223 -480 -42 -82
-96 -189 -120 -237 -25 -50 -49 -85 -55 -81 -6 3 -7 1 -3 -5 3 -6 -33 -77 -81
-158 -85 -142 -88 -146 -93 -113 -8 48 55 164 86 159 16 -3 58 78 60 115 2 39
28 92 94 190 15 22 31 51 35 65 13 45 88 194 116 230 14 19 29 51 33 70 10 56
68 179 87 185 26 8 49 67 49 123 0 28 4 53 9 57 5 3 13 19 16 36 5 20 18 37
36 48 16 9 29 20 29 25 0 5 3 6 6 3 4 -4 -1 -28 -11 -54z m5325 -543 c38 -11
78 -42 98 -77 18 -33 15 -113 -6 -145 -58 -88 -156 -101 -233 -31 -63 57 -64
156 -1 216 46 44 83 54 142 37z m7806 -1081 c76 -36 107 -142 62 -209 -38 -55
-73 -75 -133 -75 -136 0 -204 154 -112 254 48 52 115 63 183 30z m-23170 -389
c78 -30 111 -147 62 -220 -84 -122 -278 -68 -278 77 0 88 60 153 140 153 27 0
61 -5 76 -10z m8743 -149 c13 -24 -24 -74 -88 -116 -28 -19 -49 -42 -55 -62
-9 -27 -161 -210 -176 -212 -3 -1 -5 12 -5 28 0 24 29 63 145 196 80 92 147
171 148 176 6 15 21 10 31 -10z m-678 -722 c9 -19 7 -25 -17 -46 -16 -13 -50
-37 -76 -54 -26 -17 -50 -38 -53 -49 -3 -10 -31 -40 -63 -66 -31 -27 -73 -63
-92 -81 -42 -39 -46 -40 -54 -10 -6 22 10 41 91 107 44 36 182 161 212 192 32
33 37 33 52 7z m-521 -471 c0 -13 -56 -45 -90 -52 -48 -8 -79 -32 -96 -71 -9
-23 -42 -54 -100 -96 -82 -59 -87 -61 -101 -43 -16 22 -35 5 192 172 133 99
163 117 178 108 9 -6 17 -14 17 -18z m-579 -394 c15 -18 20 -12 -81 -75 -36
-21 -99 -61 -140 -87 -129 -83 -156 -95 -184 -88 -14 3 -26 11 -26 16 0 12 73
50 96 50 27 0 83 31 89 48 6 19 201 150 226 152 4 0 12 -7 20 -16z m-5801
-1098 c69 -13 163 -30 208 -37 65 -10 92 -19 119 -41 46 -37 92 -44 136 -23
21 10 52 15 78 13 39 -3 44 -6 44 -28 -1 -24 -3 -25 -50 -22 -51 4 -261 33
-373 52 -38 6 -72 19 -85 31 -30 27 -63 34 -117 23 -53 -11 -123 3 -128 25 -5
25 7 43 25 37 10 -3 74 -16 143 -30z m2693 -81 c-6 -28 -12 -31 -118 -44 -66
-9 -350 -41 -360 -41 -1 0 -2 11 -2 25 0 30 2 31 162 45 141 12 188 17 250 30
69 13 73 12 68 -15z m-1595 -52 l173 -6 16 -30 15 -30 -119 7 c-73 5 -124 13
-133 21 -27 23 -75 27 -118 10 -22 -9 -55 -15 -74 -13 -28 3 -33 7 -36 32 l-4
29 54 -6 c29 -4 131 -10 226 -14z m4943 -2247 c53 -46 61 -135 18 -190 -23
-29 -92 -66 -123 -66 -30 0 -71 23 -72 40 -1 29 -16 49 -45 59 -26 9 -29 15
-29 51 0 37 23 100 36 100 2 0 18 -10 34 -21 46 -34 114 -17 133 34 8 22 16
21 48 -7z m8365 -2984 c56 -41 71 -147 28 -205 -40 -55 -130 -75 -194 -42 -35
18 -67 65 -76 111 -7 36 21 109 52 136 44 38 137 39 190 0z m-14453 -1316 c74
-32 112 -106 88 -174 -35 -98 -138 -141 -219 -92 -90 55 -96 182 -11 248 45
35 89 41 142 18z m21862 -76 c4 -6 10 -8 15 -5 15 9 34 -56 26 -90 -8 -30 -59
-57 -93 -49 -38 10 -52 31 -53 81 0 32 5 45 22 57 25 18 74 21 83 6z m-375
-215 c0 -5 4 -3 10 5 15 23 18 9 11 -48 -9 -60 -29 -81 -80 -82 -71 0 -92 56
-42 109 24 26 37 31 65 29 20 -1 36 -7 36 -13z m-97 -296 c58 -71 -44 -171
-111 -109 -32 30 -30 92 3 118 31 25 83 20 108 -9z m-417 -177 c39 -26 38
-100 -2 -127 -43 -28 -84 -16 -112 33 -16 29 0 88 26 95 28 8 76 7 88 -1z
m309 -112 c26 -29 22 -99 -6 -122 -23 -20 -74 -24 -84 -7 -4 6 -13 8 -21 5 -8
-3 -13 -2 -12 2 1 4 -2 15 -7 25 -12 27 4 85 28 102 31 21 80 19 102 -5z
m-722 -79 c55 -21 53 -125 -1 -137 -15 -3 -32 -7 -39 -9 -6 -2 -23 5 -37 16
-37 29 -37 89 0 118 30 23 42 25 77 12z m1023 -22 c17 -19 29 -103 13 -93 -4
2 -9 -5 -12 -15 -2 -10 -18 -23 -34 -29 -79 -27 -149 76 -93 136 28 30 99 31
126 1z m-685 -117 c15 -38 -6 -87 -42 -102 -41 -17 -92 6 -107 49 -9 25 -7 35
12 63 38 57 114 51 137 -10z m-1020 30 c47 -39 17 -122 -45 -122 -37 0 -49 7
-65 37 -16 31 -14 47 10 77 25 31 66 35 100 8z m297 -98 c29 -20 31 -83 3
-108 -38 -35 -110 -15 -126 34 -6 20 11 71 28 82 20 13 71 9 95 -8z m989 0
c15 -4 26 -18 32 -41 17 -62 -12 -103 -72 -103 -52 0 -87 30 -87 75 0 60 53
89 127 69z m-1669 -101 c18 -25 15 -70 -8 -93 -42 -42 -120 -11 -120 48 0 15
4 32 8 38 24 36 95 40 120 7z m992 -5 c46 -50 9 -128 -61 -128 -44 0 -69 27
-69 75 0 17 7 41 16 53 21 31 85 31 114 0z m979 7 c33 -16 41 -33 41 -80 0
-46 -50 -89 -94 -81 -63 12 -95 84 -60 134 28 41 69 50 113 27z m-685 -106
c56 -44 18 -139 -57 -139 -60 0 -89 48 -71 116 12 44 85 57 128 23z m-1700
-84 c12 -9 19 -28 20 -51 1 -28 -5 -41 -26 -56 -45 -35 -108 -4 -108 52 0 56
69 89 114 55z m2006 -25 c50 -57 -9 -147 -86 -132 -31 6 -64 47 -64 79 0 28
17 63 38 79 22 16 89 0 112 -26z m-15639 -37 c17 -10 27 -23 24 -31 -2 -7 0
-10 5 -7 6 3 10 0 10 -9 0 -8 3 -22 7 -32 4 -11 3 -15 -4 -11 -6 4 -11 1 -10
-6 1 -32 -5 -44 -32 -60 -30 -17 -67 -22 -95 -11 -27 11 -7 24 37 24 23 0 47
4 54 8 6 4 -19 7 -57 7 -37 0 -63 -3 -58 -6 6 -4 7 -9 0 -12 -5 -4 -17 13 -26
36 -15 39 -15 43 1 55 10 7 12 12 4 12 -7 0 -10 4 -6 10 3 5 12 7 19 4 8 -3
17 -1 21 5 3 6 -2 11 -12 11 -14 1 -13 4 7 15 34 19 76 19 111 -2z m13929 -32
c18 -14 24 -29 24 -56 0 -67 -72 -99 -121 -53 -31 29 -30 72 2 103 29 30 61
31 95 6z m1979 -8 c18 -10 34 -28 38 -41 6 -24 -1 -100 -11 -109 -3 -3 -25 -8
-49 -10 -35 -4 -48 -1 -71 18 -44 38 -38 111 11 141 36 21 45 21 82 1z m-1670
-109 c28 -36 26 -70 -5 -99 -45 -42 -103 -30 -123 25 -19 55 12 100 70 100 29
0 42 -6 58 -26z m-714 -80 c19 -13 25 -25 25 -53 -1 -51 -22 -75 -66 -75 -68
0 -97 72 -49 119 28 29 56 32 90 9z m995 -4 c29 -16 43 -79 24 -108 -43 -66
-144 -41 -144 36 0 65 63 102 120 72z m-7430 -56 c25 -12 62 -30 83 -39 21 -9
37 -23 37 -32 0 -12 3 -14 11 -6 7 7 31 0 80 -24 62 -31 80 -53 45 -53 -7 0
-25 -11 -41 -24 l-28 -24 34 -7 c19 -4 41 -15 49 -24 8 -9 28 -27 44 -39 40
-31 14 -28 -33 4 -22 14 -45 26 -53 28 -24 4 -68 38 -61 49 4 6 -2 8 -17 4
-23 -6 -95 25 -84 36 3 3 -3 3 -15 0 -11 -3 -32 3 -48 15 -15 11 -59 34 -98
52 -164 76 -192 91 -155 84 19 -3 41 -11 48 -17 7 -5 16 -7 19 -3 4 4 2 11 -6
15 -10 6 -9 10 4 14 9 4 13 3 10 -3 -3 -6 1 -10 9 -10 9 0 16 -4 16 -10 0 -5
-7 -10 -15 -10 -8 0 -15 -4 -15 -10 0 -5 11 -10 24 -10 14 0 28 -4 31 -10 9
-15 25 -12 25 5 0 8 -5 15 -11 15 -5 0 -7 5 -4 10 3 6 -1 10 -9 10 -9 0 -16 5
-16 10 0 6 16 10 35 10 35 0 47 13 23 24 -7 3 -2 3 12 0 14 -4 45 -17 70 -30z
m7747 -56 c7 -6 13 -29 13 -51 0 -77 -83 -115 -135 -62 -28 27 -34 79 -12 108
25 35 95 38 134 5z m-1005 5 c29 -26 24 -87 -8 -112 -36 -28 -60 -26 -95 8
-34 35 -36 59 -8 95 24 31 81 36 111 9z m-697 -88 c48 -47 19 -115 -49 -115
-40 0 -66 28 -66 70 0 30 8 43 35 58 31 18 54 14 80 -13z m1000 -10 c47 -46
23 -118 -42 -131 -27 -5 -37 -1 -64 25 -26 27 -30 37 -25 64 13 65 85 89 131
42z m975 10 c32 -17 50 -43 50 -74 0 -81 -94 -119 -150 -59 -35 38 -19 110 30
135 32 16 35 16 70 -2z m-1697 -86 c24 -11 47 -47 47 -73 0 -7 -9 -25 -21 -40
-15 -19 -30 -26 -55 -26 -70 0 -98 73 -48 124 30 29 42 31 77 15z m1006 -14
c45 -23 54 -66 24 -115 -19 -32 -44 -40 -91 -28 -60 16 -75 98 -24 138 30 24
53 25 91 5z m1019 -21 c47 -53 9 -138 -61 -138 -54 0 -86 21 -93 63 -18 92 92
146 154 75z m-2698 -81 c25 -32 20 -69 -12 -95 -64 -55 -148 42 -88 102 29 29
74 26 100 -7z m993 -1 c48 -52 18 -132 -49 -132 -42 0 -84 37 -84 75 0 60 94
100 133 57z m997 -2 c33 -33 30 -95 -6 -127 -78 -70 -184 48 -109 122 31 32
86 34 115 5z m990 0 c11 -6 24 -28 30 -50 14 -52 -7 -98 -50 -107 -18 -3 -27
-10 -23 -17 3 -6 0 -6 -8 2 -7 6 -22 12 -33 12 -36 0 -56 29 -56 81 0 37 5 53
22 69 24 22 86 27 118 10z m-2700 -87 c33 -19 44 -51 30 -87 -18 -48 -70 -59
-114 -25 -34 27 -35 71 -1 104 28 29 47 31 85 8z m1012 -13 c25 -26 29 -36 24
-62 -9 -47 -33 -68 -76 -68 -36 0 -79 28 -81 53 -4 38 5 65 27 85 35 31 70 28
106 -8z m989 -1 c25 -17 29 -27 29 -65 0 -59 -25 -84 -84 -84 -59 0 -90 36
-83 92 10 73 77 101 138 57z m1006 -15 c8 -13 20 -21 26 -17 7 4 8 -11 4 -48
-5 -42 -12 -59 -33 -76 -25 -20 -108 -38 -98 -21 3 5 -1 8 -8 8 -36 0 -61 97
-37 141 25 48 117 56 146 13z m-2697 -72 c16 -13 22 -29 22 -55 0 -72 -77
-103 -129 -51 -65 65 35 165 107 106z m1000 -12 c25 -25 27 -91 3 -115 -40
-41 -96 -38 -127 7 -25 36 -16 98 18 120 23 16 86 8 106 -12z m999 -5 c7 -7
17 -31 21 -53 12 -65 -19 -101 -86 -102 -47 0 -80 28 -89 75 -7 38 24 92 57
98 32 6 81 -3 97 -18z m-2699 -85 c27 -27 25 -66 -5 -95 -30 -30 -54 -31 -89
-4 -34 27 -36 81 -4 103 31 22 74 20 98 -4z m995 -5 c46 -45 19 -135 -41 -135
-63 0 -99 45 -83 103 16 57 82 75 124 32z m985 10 c18 -9 32 -26 36 -43 3 -15
7 -31 8 -37 5 -17 -35 -66 -61 -76 -16 -6 -34 -5 -58 5 -62 26 -74 89 -26 137
33 33 58 36 101 14z m1026 -33 c48 -65 6 -141 -81 -144 -49 -2 -85 36 -85 88
0 48 15 72 53 88 27 11 37 11 66 0 19 -8 40 -22 47 -32z m-2708 -72 c47 -44
13 -124 -53 -124 -67 0 -98 72 -50 119 30 31 73 32 103 5z m1001 -6 c28 -36
27 -79 -4 -109 -49 -50 -135 -17 -135 53 0 50 32 82 81 82 29 0 42 -6 58 -26z
m1000 -10 c72 -91 -59 -202 -133 -113 -30 35 -32 58 -11 99 17 34 27 38 82 39
34 1 46 -4 62 -25z m999 15 c-6 -4 -7 -12 -3 -19 5 -8 10 -9 14 -1 11 17 12
-85 1 -113 -14 -39 -62 -59 -108 -46 -61 17 -66 23 -66 85 -1 51 2 59 27 79
22 18 40 22 86 22 33 -1 54 -4 49 -7z m225 -74 c40 0 45 -2 30 -12 -16 -12
-16 -13 2 -13 22 0 55 -28 55 -47 0 -23 20 -14 21 10 0 12 3 16 6 10 2 -7 -3
-38 -12 -70 -16 -54 -16 -58 2 -70 15 -12 16 -15 3 -23 -8 -5 -19 -10 -25 -10
-5 0 -3 5 5 10 12 7 12 12 2 22 -8 8 -15 9 -20 3 -8 -12 -33 -16 -87 -16 -46
0 -75 27 -76 70 0 23 -1 24 -9 6 -7 -17 -9 -16 -9 10 -1 17 -4 41 -6 55 -3 16
0 12 9 -10 13 -31 15 -32 15 -11 1 31 28 61 55 61 19 1 19 2 3 11 -9 5 -22 7
-27 4 -6 -3 -10 -2 -10 4 0 5 -6 11 -12 14 -7 2 -2 2 12 -2 14 -3 46 -6 73 -6z
m-2950 -7 c53 -28 62 -83 21 -125 -21 -21 -32 -24 -61 -20 -49 8 -70 40 -64
97 3 19 48 60 67 60 9 0 25 -5 37 -12z m1023 -23 c9 -8 18 -33 21 -55 7 -51
-28 -90 -81 -90 -89 0 -119 114 -41 159 25 14 80 7 101 -14z m966 9 c53 -25
71 -80 43 -133 -16 -33 -33 -41 -79 -41 -51 0 -86 33 -86 81 0 52 14 77 53 94
18 8 33 14 34 15 1 0 17 -7 35 -16z m-1689 -86 c37 -20 51 -40 51 -75 0 -73
-92 -105 -141 -48 -13 14 -23 34 -23 43 1 27 25 64 51 78 30 17 35 17 62 2z
m1008 -13 c79 -41 47 -165 -43 -165 -39 0 -88 48 -88 87 0 47 41 90 88 92 7 1
26 -6 43 -14z m992 4 c56 -25 68 -117 22 -156 -34 -30 -93 -31 -129 -2 -22 17
-26 28 -26 69 0 42 4 52 31 74 33 28 64 32 102 15z m-3660 -87 c28 -24 23 -86
-9 -111 -55 -43 -124 -14 -124 52 0 74 76 108 133 59z m1981 -17 c26 -19 36
-74 20 -106 -18 -36 -62 -53 -99 -39 -38 14 -54 38 -55 78 0 65 82 107 134 67z
m1001 -10 c35 -34 35 -99 -1 -131 -55 -52 -154 -9 -154 66 0 76 102 119 155
65z m976 6 c46 -28 62 -56 55 -97 -21 -107 -172 -113 -192 -7 -8 45 7 78 48
103 41 25 50 25 89 1z m-4663 -71 c32 -30 30 -82 -4 -109 -15 -12 -38 -21 -51
-21 -32 0 -73 42 -73 75 0 35 42 75 78 75 15 0 38 -9 50 -20z m999 -12 c50
-47 12 -138 -57 -138 -41 0 -80 39 -80 80 0 68 87 105 137 58z m987 -9 c39
-31 34 -85 -12 -115 -51 -35 -100 -9 -109 58 -9 67 64 102 121 57z m1004 -15
c49 -55 11 -138 -65 -138 -69 0 -107 81 -63 137 34 43 89 43 128 1z m993 -3
c23 -23 29 -39 29 -70 0 -94 -112 -124 -166 -44 -28 41 -21 85 18 118 40 34
82 33 119 -4z m1007 -6 c38 -45 25 -131 -25 -154 -30 -14 -78 -14 -104 -1 -48
26 -59 109 -20 154 38 44 111 44 149 1z m987 1 c26 -21 29 -29 29 -80 0 -77
-23 -101 -99 -101 -43 0 -58 5 -74 22 -12 12 -21 31 -21 42 0 11 -6 21 -12 24
-10 4 -10 7 0 18 6 7 12 20 12 29 0 20 38 56 65 63 44 10 71 6 100 -17z
m-6672 -54 c17 -15 23 -68 9 -88 -13 -20 -54 -36 -77 -30 -72 18 -75 114 -5
139 20 7 51 -2 73 -21z m1000 -14 c26 -31 22 -82 -9 -107 -54 -43 -124 -10
-124 58 0 73 85 105 133 49z m996 -4 c44 -57 8 -134 -62 -134 -65 0 -102 61
-73 118 18 35 28 40 78 41 28 1 41 -5 57 -25z m970 1 c27 -14 41 -39 41 -78 0
-30 -45 -67 -82 -67 -42 0 -54 8 -68 45 -14 37 -5 75 23 97 27 22 50 22 86 3z
m1016 -20 c53 -52 17 -146 -56 -148 -66 -2 -112 58 -89 117 21 57 102 75 145
31z m986 12 c48 -37 52 -105 9 -149 -28 -27 -36 -30 -73 -25 -52 7 -87 44 -87
90 0 31 21 73 44 89 17 12 89 9 107 -5z m1016 -34 c16 -19 23 -41 23 -70 0
-36 -5 -46 -33 -67 -50 -38 -100 -35 -143 8 -19 19 -34 42 -34 51 0 30 40 100
63 111 36 16 98 0 124 -33z m975 15 c8 -7 22 -24 32 -38 52 -78 -35 -181 -128
-150 -68 22 -89 111 -40 169 22 27 33 31 73 31 26 0 54 -6 63 -12z m-7660 -45
c10 -9 18 -30 18 -49 0 -62 -75 -92 -119 -49 -19 19 -16 73 5 96 21 23 71 25
96 2z m996 -13 c30 -28 29 -74 -3 -105 -29 -30 -62 -31 -93 -5 -33 27 -38 70
-12 103 27 34 76 37 108 7z m997 -5 c34 -33 33 -78 -2 -111 -51 -47 -133 -11
-133 58 0 39 40 78 80 78 19 0 40 -9 55 -25z m993 -5 c16 -15 22 -32 22 -65 0
-57 -36 -90 -90 -81 -57 9 -82 56 -64 121 11 43 95 59 132 25z m991 -16 c42
-35 43 -86 4 -120 -51 -44 -123 -22 -139 43 -12 44 38 102 88 103 9 0 30 -12
47 -26z m1021 -30 c16 -41 12 -71 -14 -101 -32 -37 -93 -39 -130 -4 -35 33
-36 98 -3 128 44 42 128 28 147 -23z m987 11 c25 -29 30 -74 11 -108 -26 -49
-59 -63 -116 -47 -74 19 -92 113 -33 168 35 33 104 27 138 -13z m994 -6 c38
-50 26 -130 -23 -160 -71 -44 -168 17 -159 101 4 31 36 79 56 84 47 10 108 -2
126 -25z m-6687 -40 c50 -39 22 -122 -42 -122 -69 0 -99 80 -46 122 15 12 34
21 44 21 10 0 29 -9 44 -21z m975 10 c55 -19 69 -82 26 -124 -50 -51 -125 -18
-125 55 0 30 6 43 26 59 31 24 31 24 73 10z m1022 -28 c33 -33 36 -60 12 -101
-16 -28 -39 -40 -76 -40 -28 0 -77 54 -77 85 0 35 50 85 85 85 16 0 38 -12 56
-29z m1970 -1 c27 -15 52 -68 45 -96 -14 -54 -94 -84 -137 -51 -45 35 -49 84
-10 126 30 32 66 40 102 21z m1017 -23 c61 -65 24 -157 -64 -157 -66 0 -106
51 -90 115 16 64 109 90 154 42z m1956 9 c44 -18 66 -51 66 -99 0 -48 -22 -82
-62 -96 -42 -15 -101 2 -122 34 -19 29 -21 103 -3 127 10 12 58 39 85 47 1 1
18 -5 36 -13z m-953 -25 c55 -56 23 -152 -56 -167 -93 -17 -155 103 -89 170
39 38 105 37 145 -3z m-6688 -23 c9 -7 20 -27 23 -45 5 -26 1 -37 -20 -58 -31
-31 -69 -28 -98 7 -23 27 -23 49 3 82 22 29 64 35 92 14z m1002 -23 c49 -48
19 -119 -50 -119 -27 0 -43 6 -56 23 -61 75 39 164 106 96z m1000 -10 c61 -60
-6 -157 -88 -126 -32 12 -47 39 -47 84 0 64 87 91 135 42z m985 5 c23 -12 39
-59 33 -94 -6 -30 -46 -66 -75 -66 -27 0 -74 26 -82 45 -8 22 -7 78 2 91 21
31 85 44 122 24z m1974 -10 c58 -22 69 -110 19 -150 -77 -61 -182 26 -132 109
27 45 66 59 113 41z m999 -9 c30 -12 61 -74 52 -108 -10 -42 -49 -73 -93 -73
-100 0 -134 114 -53 177 19 15 61 16 94 4z m1017 -20 c19 -14 26 -28 28 -62 3
-60 -15 -91 -63 -108 -35 -12 -45 -11 -76 2 -69 28 -78 131 -16 175 37 26 84
24 127 -7z m-6665 -46 c28 -27 31 -45 14 -78 -16 -30 -28 -37 -71 -37 -31 0
-40 5 -53 30 -8 16 -15 36 -15 45 0 25 46 65 75 65 14 0 37 -11 50 -25z m990
-1 c78 -51 5 -169 -80 -128 -37 17 -51 52 -40 97 11 43 75 60 120 31z m1005
-9 c38 -34 27 -110 -19 -135 -86 -45 -165 70 -94 136 22 21 35 25 62 20 18 -3
41 -12 51 -21z m998 -17 c26 -25 29 -73 6 -106 -38 -55 -119 -48 -148 12 -43
90 68 163 142 94z m1986 -14 c85 -85 -41 -210 -129 -128 -24 22 -27 31 -22 71
6 56 35 82 88 83 26 0 44 -7 63 -26z m998 -11 c64 -61 18 -163 -73 -163 -72 0
-109 66 -79 144 22 58 101 68 152 19z m993 -7 c45 -45 45 -101 1 -149 -20 -22
-34 -27 -70 -27 -36 0 -50 6 -75 31 -35 35 -40 73 -16 119 20 38 41 49 93 50
32 0 49 -6 67 -24z m-7665 -36 c29 -29 25 -64 -11 -94 -37 -31 -36 -31 -76 -6
-27 16 -33 26 -33 54 0 60 77 89 120 46z m965 10 c42 0 61 -85 28 -122 -40
-45 -127 -8 -125 53 1 38 44 84 69 75 8 -3 21 -6 28 -6z m1015 -10 c51 -27 38
-118 -19 -138 -61 -21 -119 27 -106 88 11 51 75 77 125 50z m997 -12 c50 -24
37 -128 -17 -147 -76 -26 -142 45 -108 116 23 48 67 59 125 31z m1010 -24 c22
-22 25 -32 20 -67 -7 -52 -36 -77 -89 -77 -77 0 -113 76 -67 141 17 25 27 29
65 29 35 0 51 -6 71 -26z m990 -12 c40 -47 24 -107 -36 -131 -24 -11 -35 -10
-64 4 -65 30 -67 117 -5 149 41 20 75 13 105 -22z m999 -9 c34 -40 32 -87 -5
-124 -58 -58 -147 -26 -158 56 -12 91 102 138 163 68z m981 7 c37 -22 48 -54
39 -105 -15 -76 -113 -102 -167 -44 -85 91 22 214 128 149z m-6662 -50 c42
-47 10 -120 -52 -120 -40 0 -61 17 -69 57 -13 65 77 112 121 63z m992 -2 c27
-25 30 -73 7 -106 -20 -29 -85 -31 -114 -2 -28 28 -26 75 5 105 30 31 71 32
102 3z m998 -13 c33 -32 34 -86 3 -115 -54 -50 -138 -13 -138 61 0 71 85 105
135 54z m978 3 c33 -17 46 -39 47 -76 0 -72 -94 -110 -147 -60 -34 32 -32 99
3 127 30 23 65 27 97 9z m1013 -13 c53 -34 32 -134 -32 -155 -68 -23 -134 40
-117 112 16 64 86 84 149 43z m991 -14 c67 -56 13 -173 -72 -157 -83 16 -103
125 -30 164 30 17 77 14 102 -7z m1001 -15 c35 -35 39 -94 9 -128 -72 -82
-207 -5 -166 94 27 66 108 84 157 34z m984 13 c11 -6 26 -26 34 -46 49 -116
-115 -202 -179 -93 -28 47 -18 96 27 132 24 20 87 23 118 7z m-7656 -52 c59
-62 -34 -158 -98 -100 -33 29 -19 101 22 116 20 8 62 -1 76 -16z m997 -5 c24
-21 22 -77 -3 -102 -45 -45 -123 -13 -123 50 0 68 73 98 126 52z m995 -5 c7
-8 15 -29 18 -48 13 -77 -76 -120 -131 -64 -34 33 -32 70 5 107 26 25 36 29
63 24 17 -4 38 -12 45 -19z m993 -16 c37 -38 39 -82 4 -116 -51 -52 -145 -16
-145 55 0 40 47 90 85 90 16 0 38 -12 56 -29z m995 4 c25 -17 37 -66 25 -98
-16 -41 -40 -57 -86 -57 -37 0 -47 5 -64 29 -46 64 -10 141 66 141 21 0 48 -7
59 -15z m1001 -18 c36 -37 34 -97 -3 -132 -58 -54 -154 -16 -154 59 0 52 10
72 43 89 40 20 85 14 114 -16z m989 -11 c22 -22 35 -73 25 -99 -19 -49 -76
-76 -121 -57 -33 14 -64 71 -56 104 6 26 34 60 56 69 23 10 79 0 96 -17z
m1002 -11 c15 -19 22 -39 22 -70 0 -36 -5 -47 -32 -70 -63 -53 -158 -11 -158
70 0 45 21 82 54 96 35 14 89 2 114 -26z m-6676 -32 c27 -24 24 -87 -4 -107
-51 -36 -118 -5 -118 54 0 58 78 93 122 53z m995 -15 c33 -30 31 -80 -3 -107
-55 -43 -124 -14 -124 52 0 69 77 102 127 55z m998 -3 c51 -52 17 -135 -55
-135 -65 0 -103 60 -73 117 18 35 31 43 70 43 21 0 41 -9 58 -25z m986 2 c28
-21 40 -56 33 -92 -13 -69 -102 -90 -148 -34 -14 17 -26 41 -26 54 0 13 12 37
26 54 20 24 34 31 62 31 21 0 44 -6 53 -13z m989 -12 c31 -16 55 -70 44 -101
-25 -70 -103 -87 -156 -34 -26 27 -30 36 -25 68 11 69 74 100 137 67z m1997
-23 c75 -57 20 -185 -72 -168 -73 14 -102 112 -49 161 32 30 88 33 121 7z
m1007 -23 c47 -56 28 -134 -40 -159 -36 -14 -82 -1 -109 32 -57 67 -11 158 78
158 38 0 49 -5 71 -31z m-7667 -20 c7 -6 13 -29 13 -50 0 -60 -57 -89 -108
-53 -31 22 -31 86 1 109 23 17 69 14 94 -6z m987 -10 c54 -43 21 -129 -50
-129 -55 0 -94 71 -61 112 32 41 73 47 111 17z m973 11 c52 -19 68 -79 32
-124 -29 -37 -92 -34 -122 6 -29 39 -17 91 26 112 17 8 32 16 33 16 1 0 15 -5
31 -10z m1030 -32 c11 -12 18 -35 18 -60 0 -51 -30 -78 -85 -78 -47 0 -80 35
-80 84 0 41 17 64 55 74 39 11 70 4 92 -20z m1000 -15 c31 -38 29 -77 -6 -113
-75 -79 -186 3 -140 104 24 53 107 58 146 9z m983 9 c15 -12 24 -33 27 -64 5
-40 2 -50 -20 -72 -18 -18 -37 -26 -62 -26 -47 0 -71 14 -91 51 -18 37 -12 74
18 107 27 28 95 30 128 4z m-4675 -76 c49 -74 -47 -152 -109 -90 -20 20 -20
63 0 92 22 32 88 31 109 -2z m994 -2 c27 -34 27 -72 -1 -101 -26 -28 -76 -31
-108 -5 -31 25 -32 88 -1 113 35 28 85 25 110 -7z"/>
<path d="M9246 19965 c9 -14 20 -25 25 -25 5 0 9 -5 9 -11 0 -6 -9 -8 -22 -4
-20 5 -21 4 -5 -5 9 -6 21 -8 26 -5 6 3 26 -16 45 -41 20 -26 36 -43 36 -38 0
5 12 -8 27 -29 14 -20 31 -37 37 -37 7 0 34 -22 61 -50 36 -36 55 -49 70 -45
11 3 14 2 8 -1 -25 -11 -13 -39 34 -82 155 -142 312 -274 379 -320 11 -7 57
-39 104 -72 178 -124 415 -255 590 -326 47 -19 94 -39 105 -44 42 -18 203 -70
280 -89 384 -95 774 -100 1260 -16 233 40 301 53 342 64 21 6 92 21 158 35 66
13 185 38 265 55 80 17 199 40 265 51 193 32 174 23 169 83 -26 341 -70 711
-105 882 -6 28 -12 60 -15 73 -4 22 -6 22 -164 22 -88 0 -160 -2 -160 -5 0 -3
7 -16 15 -29 27 -41 -11 -105 -63 -106 -51 0 -93 80 -57 110 8 7 15 16 15 21
0 5 -158 9 -356 9 -314 0 -357 -2 -372 -16 -15 -15 -13 -16 15 -10 19 4 34 3
38 -3 4 -7 -7 -11 -28 -11 -22 0 -37 -6 -41 -15 -3 -8 -2 -14 2 -14 21 3 31
-4 41 -28 10 -27 10 -27 8 -3 -1 14 -9 30 -17 37 -13 10 -10 12 17 13 17 0 35
-4 38 -10 4 -6 -1 -7 -12 -4 -17 5 -17 5 0 -9 18 -15 18 -17 1 -46 -16 -27
-39 -41 -71 -41 -21 0 -63 54 -63 80 0 25 29 77 30 53 0 -6 -4 -14 -9 -17 -11
-7 -2 -56 11 -56 6 0 7 7 4 16 -4 10 1 25 9 34 12 13 13 20 5 25 -9 6 -9 10 1
16 7 4 -215 8 -495 9 -361 0 -513 -3 -522 -11 -9 -7 -28 -8 -51 -4 -21 4 -181
10 -356 12 -307 3 -319 3 -347 -17 -15 -11 -36 -20 -47 -20 -11 0 -5 7 17 18
25 12 30 18 18 20 -10 2 -28 -4 -40 -12 -28 -20 -44 -21 -28 -1 10 12 10 15
-4 15 -9 0 -16 -5 -16 -11 0 -9 -4 -9 -14 0 -9 8 -171 11 -565 11 l-551 0 16
-25z m4137 -143 c24 -22 22 -76 -5 -102 -55 -51 -132 6 -107 78 17 50 70 61
112 24z m-763 -12 c33 -29 31 -76 -4 -107 -35 -29 -56 -29 -90 2 -71 66 20
169 94 105z m-769 -20 c32 -32 33 -50 3 -97 -11 -18 -24 -23 -53 -23 -34 0
-42 5 -60 34 -25 39 -17 73 21 100 33 23 56 20 89 -14z m-774 -2 c38 -31 38
-94 1 -117 -52 -32 -110 -13 -123 40 -15 66 70 120 122 77z m-773 -4 c53 -34
40 -115 -21 -135 -31 -10 -39 -9 -62 9 -20 15 -25 27 -24 53 2 28 1 30 -6 14
-5 -11 -10 -14 -10 -7 -2 23 28 70 46 75 35 9 54 7 77 -9z m2621 -119 c14 -13
25 -36 25 -50 0 -31 -41 -75 -70 -75 -29 0 -70 44 -70 75 0 31 41 75 70 75 11
0 32 -11 45 -25z m-785 0 c34 -17 47 -55 34 -94 -19 -53 -106 -53 -132 1 -20
42 14 96 66 107 2 1 16 -6 32 -14z m-746 -36 c31 -36 32 -46 9 -79 -22 -33
-33 -40 -64 -40 -55 0 -90 59 -65 109 27 52 81 56 120 10z m-773 -7 c28 -25
31 -33 25 -63 -6 -36 -46 -69 -81 -69 -25 0 -75 55 -75 83 0 29 51 77 81 77
10 0 33 -13 50 -28z m-790 8 c5 0 9 -4 9 -8 0 -5 -14 -7 -30 -4 -44 6 -72 -22
-68 -68 2 -19 8 -38 13 -42 15 -11 45 -9 45 3 0 6 -8 8 -19 4 -17 -5 -21 0
-27 30 -9 51 8 68 65 61 25 -2 47 -5 47 -5 1 -1 5 -12 8 -26 16 -64 -62 -118
-118 -81 -33 21 -43 69 -21 102 18 27 52 45 73 38 8 -2 18 -4 23 -4z m1868
-146 c12 -15 21 -37 21 -49 0 -56 -69 -94 -111 -62 -34 26 -41 55 -24 92 25
51 81 61 114 19z m-796 7 c13 -5 31 -21 41 -35 38 -58 -26 -129 -93 -104 -56
20 -66 74 -22 119 32 32 38 33 74 20z m-758 -17 c8 -4 22 -19 31 -35 28 -55
-8 -109 -72 -109 -36 0 -61 24 -70 67 -11 55 53 99 111 77z m1089 -145 c32
-25 34 -66 5 -103 -41 -52 -123 -18 -123 51 0 65 65 94 118 52z m-781 -1 c39
-19 50 -51 32 -93 -19 -46 -57 -64 -93 -44 -42 23 -58 60 -43 96 11 28 40 51
67 52 5 1 22 -5 37 -11z m335 -168 c53 -49 -4 -142 -75 -124 -22 6 -53 53 -53
80 0 54 85 83 128 44z"/>
<path d="M13450 19986 c0 -2 5 -28 11 -57 17 -91 57 -348 69 -454 6 -55 14
-107 17 -115 3 -8 5 -28 5 -45 -1 -16 4 -100 11 -185 l12 -155 60 2 c33 1 193
3 355 4 296 2 332 0 570 -41 152 -26 431 -107 545 -159 22 -10 51 -22 65 -26
42 -13 280 -131 375 -186 126 -72 399 -255 457 -304 13 -11 43 -36 68 -55 25
-19 54 -42 65 -52 11 -9 54 -44 95 -78 93 -77 239 -211 390 -356 125 -121 257
-245 288 -272 10 -9 52 -46 92 -82 40 -36 86 -76 103 -90 114 -95 173 -144
177 -149 3 -3 21 -18 42 -33 20 -15 42 -33 50 -40 52 -50 180 -137 193 -132
11 5 14 2 8 -12 -5 -14 -3 -16 11 -11 12 5 16 3 13 -5 -5 -17 60 -61 75 -52 8
5 9 2 5 -9 -3 -10 -2 -17 3 -17 6 0 44 -25 85 -56 42 -30 80 -52 85 -49 6 3
10 -1 10 -9 0 -8 14 -23 30 -33 17 -9 30 -21 30 -25 0 -4 5 -8 12 -8 6 0 20
-7 30 -17 10 -9 21 -13 25 -9 4 4 1 11 -7 16 -11 7 -10 9 7 8 13 -1 19 -7 16
-16 -8 -18 28 -43 44 -30 15 12 33 2 33 -17 0 -9 -6 -12 -17 -9 -15 5 -16 4
-3 -5 22 -17 70 -42 70 -37 0 3 -8 13 -17 22 -17 17 -17 18 0 11 28 -11 47 3
47 34 0 16 -4 29 -10 29 -5 0 -10 -4 -10 -10 0 -5 -16 -10 -36 -10 -21 0 -33
4 -29 10 3 6 -1 10 -9 10 -9 0 -16 -4 -16 -10 0 -5 -7 -10 -15 -10 -24 0 -18
27 8 34 12 3 61 6 110 6 l87 0 0 40 0 40 40 0 c29 0 40 4 40 15 0 11 11 15 40
15 22 0 40 5 40 10 0 6 -18 10 -40 10 l-40 0 0 55 0 55 160 0 160 0 0 40 0 40
-80 0 c-64 0 -80 3 -80 15 0 12 16 15 80 15 64 0 80 -3 80 -15 0 -11 11 -15
40 -15 40 0 40 0 40 -39 l0 -38 61 -7 c34 -3 89 -5 123 -4 49 1 53 2 19 5 -29
3 -43 9 -43 19 0 19 -19 18 -26 -1 -9 -23 -54 -19 -54 5 0 39 35 60 100 60 57
0 60 1 60 25 l0 25 240 0 c207 0 240 2 240 15 0 13 -29 15 -200 15 -171 0
-200 2 -200 15 0 13 33 15 240 15 207 0 240 -2 240 -15 0 -13 78 -15 640 -15
l640 0 0 25 0 25 240 0 c207 0 240 2 240 15 0 13 -29 15 -200 15 -171 0 -200
2 -200 15 0 13 33 15 240 15 207 0 240 -2 240 -15 0 -13 78 -15 640 -15 l640
0 0 25 0 25 240 0 c207 0 240 2 240 15 0 13 -24 15 -160 15 -136 0 -160 2
-160 15 0 13 29 15 200 15 171 0 200 -2 200 -15 0 -12 16 -15 80 -15 64 0 80
3 80 15 0 11 11 15 40 15 29 0 40 -4 40 -15 0 -13 64 -15 520 -15 l520 0 0 25
0 25 240 0 c207 0 240 2 240 15 0 13 -24 15 -160 15 -136 0 -160 2 -160 15 0
13 29 15 200 15 171 0 200 -2 200 -15 0 -11 11 -15 40 -15 29 0 40 -4 40 -15
0 -11 11 -15 40 -15 38 0 40 2 40 30 0 28 2 30 40 30 29 0 40 -4 40 -15 0 -13
69 -15 560 -15 l560 0 0 25 0 25 200 0 c171 0 200 2 200 15 0 13 -24 15 -160
15 -136 0 -160 2 -160 15 0 13 29 15 200 15 171 0 200 -2 200 -15 0 -11 11
-15 40 -15 29 0 40 -4 40 -15 0 -11 11 -15 40 -15 38 0 40 2 40 30 0 28 2 30
40 30 29 0 40 -4 40 -15 0 -13 51 -15 400 -15 l400 0 0 -55 0 -55 40 0 c22 0
40 5 40 10 0 6 18 10 40 10 l40 0 0 45 0 45 40 0 c29 0 40 4 40 15 0 12 16 15
80 15 64 0 80 -3 80 -15 0 -11 -11 -15 -40 -15 l-40 0 0 -40 0 -40 240 0 240
0 0 -25 c0 -22 -4 -25 -40 -25 -29 0 -40 -4 -40 -15 0 -13 24 -15 160 -15
l160 0 0 -52 c0 -35 3 -48 9 -39 6 9 16 11 27 7 18 -7 18 -8 0 -22 -11 -8 -15
-14 -9 -14 16 0 76 32 106 57 20 16 36 21 53 17 14 -4 24 -2 24 5 0 6 7 11 15
11 8 0 14 5 12 11 -1 6 15 12 37 14 21 3 46 11 56 20 9 8 19 15 23 15 3 0 18
5 34 11 22 8 25 12 13 20 -11 7 -6 8 18 4 20 -4 32 -3 32 4 0 6 7 11 15 11 8
0 23 4 33 9 9 6 46 22 82 36 36 15 79 33 95 40 17 8 84 35 150 60 66 26 140
54 165 64 l45 17 3 1242 2 1242 -5769 0 c-5043 0 -5773 -2 -5797 -15 -25 -13
-31 -13 -51 0 -18 12 -79 15 -355 15 -322 0 -334 -1 -346 -20 -8 -14 -23 -20
-48 -20 -27 0 -37 5 -41 20 -5 19 -14 20 -328 20 l-323 0 -31 -30 c-26 -27
-32 -29 -55 -19 -14 7 -28 20 -31 31 -6 17 -24 18 -331 18 -277 0 -324 -2
-324 -15 0 -21 -40 -55 -65 -55 -25 0 -65 34 -65 55 0 13 -46 15 -320 15 -310
0 -320 -1 -320 -19 0 -11 -10 -32 -23 -47 -19 -21 -29 -26 -50 -20 -35 8 -57
32 -57 62 l0 24 -323 0 -324 0 5 -28 c8 -56 -61 -97 -104 -61 -25 20 -36 59
-23 75 10 12 -40 14 -325 14 l-336 0 14 -22 c20 -32 -2 -85 -39 -94 -57 -14
-110 41 -87 91 l12 25 -145 0 c-80 0 -145 -2 -145 -4z m242 -300 c29 -22 33
-67 8 -99 -26 -32 -58 -35 -94 -6 -26 20 -38 79 -16 79 6 0 10 6 10 14 0 25
64 33 92 12z m12850 -1934 c35 -38 38 -45 38 -102 0 -58 -16 -102 -45 -122 -6
-4 -1 -8 10 -9 11 0 16 -2 10 -4 -114 -35 -128 -37 -169 -25 -76 22 -118 81
-118 162 1 95 82 161 183 148 44 -6 58 -13 91 -48z"/>
<path d="M26295 13580 c-636 -49 -1204 -177 -1757 -398 -193 -78 -396 -173
-579 -272 -74 -41 -147 -81 -164 -90 -16 -8 -41 -23 -55 -31 -14 -9 -50 -31
-80 -50 -193 -120 -501 -340 -594 -424 -6 -6 -31 -26 -56 -45 -269 -209 -703
-665 -934 -984 -32 -44 -62 -83 -65 -86 -11 -9 -101 -147 -101 -154 0 -4 5 -4
12 0 7 4 8 3 4 -5 -4 -6 -11 -9 -16 -6 -9 6 -50 -46 -50 -63 0 -6 -3 -12 -8
-14 -8 -3 -78 -111 -110 -169 -37 -67 -47 -84 -52 -89 -3 -3 -21 -35 -40 -72
-19 -38 -37 -68 -40 -68 -11 0 -30 -68 -24 -86 4 -14 3 -15 -4 -5 -7 10 -11
10 -17 1 -10 -16 -4 -20 67 -39 35 -10 77 -23 93 -31 32 -13 58 -21 146 -43
30 -8 66 -20 78 -26 12 -7 28 -10 36 -8 7 3 16 2 21 -3 9 -8 106 -36 175 -49
19 -4 40 -11 46 -14 6 -4 13 -1 16 5 3 10 8 8 18 -4 8 -10 46 -23 94 -32 44
-9 123 -25 175 -36 180 -39 538 -90 627 -90 23 0 44 -4 47 -8 2 -4 49 -7 104
-7 55 0 98 -3 95 -7 -2 -5 5 -8 16 -8 12 0 21 4 21 8 0 4 11 8 24 8 14 0 23
-3 20 -7 -8 -14 22 -16 76 -6 37 6 106 6 210 -1 l155 -10 -165 3 c-163 3 -164
3 -55 -6 110 -9 484 6 495 20 7 9 26 8 36 -2 10 -10 44 -9 44 2 0 4 8 8 18 8
100 0 102 1 102 38 0 24 5 35 15 35 10 0 15 -11 15 -35 0 -19 5 -35 10 -35 6
0 10 16 10 36 0 33 2 36 23 30 12 -3 31 -6 42 -7 17 0 15 -3 -7 -13 -25 -11
-24 -12 27 -12 54 0 72 10 38 20 -10 2 0 2 22 -1 55 -8 66 -16 30 -25 -16 -4
4 -4 45 -1 41 3 84 10 95 14 13 6 2 8 -33 4 -30 -3 -51 -2 -49 2 3 5 23 10 43
11 51 4 57 12 9 12 -22 0 -47 -7 -58 -17 -11 -10 -17 -12 -13 -5 5 8 -1 12
-21 12 -15 0 -23 4 -17 8 6 4 13 14 16 23 5 12 21 15 77 14 48 -1 75 3 83 12
11 14 157 19 159 6 5 -52 12 -58 42 -39 13 9 31 14 39 11 7 -3 32 -1 53 5 l40
10 -47 -5 c-27 -3 -48 0 -48 5 0 13 79 21 120 12 19 -4 46 -5 60 -1 14 4 41
12 61 18 19 6 45 11 57 11 12 0 22 4 22 9 0 8 46 22 85 26 37 3 65 16 59 27
-5 7 -2 9 8 6 8 -4 30 -2 49 2 24 7 12 8 -43 4 -72 -4 -78 -3 -78 15 0 18 9
20 88 23 84 3 111 0 85 -9 -18 -6 -16 -23 2 -23 8 0 15 5 15 10 0 6 8 10 18
10 16 0 167 51 237 79 17 7 59 24 94 37 36 13 70 29 77 35 6 5 16 9 20 7 5 -1
36 11 69 26 33 15 78 36 100 46 22 10 74 34 115 53 41 20 86 40 100 46 14 6
32 15 40 21 8 5 76 42 150 81 277 147 624 368 895 569 77 58 146 110 153 117
8 7 30 26 50 41 21 15 39 29 42 32 3 3 59 50 125 105 66 54 125 104 131 110 6
5 48 44 94 85 86 77 207 190 290 270 71 69 301 290 435 420 66 63 176 167 245
230 162 149 200 186 200 193 0 8 -417 207 -435 207 -4 0 -21 7 -38 15 -88 41
-392 147 -562 196 -371 107 -651 161 -1065 204 -170 18 -751 28 -915 15z
m-1497 -3302 l-3 -73 -65 -1 c-76 0 -90 3 -90 22 0 11 -18 14 -80 14 l-80 0 0
40 0 40 120 0 c100 0 120 3 120 15 0 11 11 15 40 15 l41 0 -3 -72z m-1438 2
c0 -6 47 -10 120 -10 100 0 120 -2 120 -15 0 -12 -16 -15 -80 -15 -64 0 -80
-3 -80 -15 0 -12 -16 -15 -80 -15 -64 0 -80 3 -80 15 0 13 -20 15 -120 15
-100 0 -120 3 -120 15 0 11 11 15 40 15 22 0 40 5 40 10 0 6 47 10 120 10 73
0 120 -4 120 -10z m802 -119 l3 -79 -65 -6 c-93 -8 -178 -7 -184 2 -3 5 -22 8
-43 7 l-38 -2 3 39 4 38 122 2 121 1 -140 8 c-77 3 -168 7 -202 8 -35 0 -63 6
-63 11 0 6 73 10 200 10 127 0 200 4 200 10 0 6 -43 10 -107 11 -60 1 -151 5
-203 9 -75 5 -44 7 147 8 l241 2 4 -79z"/>
<path d="M10 11724 l0 -1251 48 4 c40 4 242 31 362 49 328 49 838 185 1155
308 39 15 111 43 160 63 50 19 114 45 143 59 29 13 55 24 57 24 27 0 535 267
535 281 0 3 -35 21 -77 39 -211 91 -607 302 -888 475 -195 119 -541 359 -685
475 -25 20 -81 65 -125 100 -173 139 -360 307 -552 495 l-133 129 0 -1250z"/>
<path d="M26565 351 c-6 -5 -32 -16 -60 -24 -27 -9 -44 -16 -37 -16 23 -2 12
-31 -15 -37 -40 -10 -51 -24 -42 -54 4 -14 11 -38 16 -54 4 -16 13 -31 19 -33
16 -5 26 26 14 45 -9 16 -9 16 -10 0 0 -10 -5 -18 -11 -18 -7 0 -9 9 -6 21 3
12 2 32 -3 45 -8 21 -7 24 15 24 14 0 25 5 25 11 0 6 7 4 15 -5 8 -8 12 -21 9
-29 -3 -8 -1 -18 5 -22 6 -3 11 -11 11 -16 0 -21 -20 3 -29 34 l-9 32 -1 -37
c-1 -20 4 -38 11 -40 15 -5 -3 -58 -25 -72 -13 -8 -21 -7 -33 6 -16 16 -19 15
-48 -9 -26 -21 -37 -24 -79 -20 -59 5 -96 37 -100 85 -1 18 -3 32 -4 32 -18 0
-53 -23 -47 -31 4 -8 0 -9 -15 -4 -12 4 -34 0 -52 -9 -17 -9 -47 -18 -66 -22
-24 -4 -33 -11 -29 -20 4 -12 1 -12 -14 -4 -11 6 -25 8 -31 4 -12 -7 36 -35
54 -30 7 1 9 1 5 -1 -7 -5 24 -83 34 -83 4 0 9 12 11 28 l4 27 2 -27 1 -26
159 -1 160 -2 3 27 c4 40 28 43 28 5 0 -24 4 -31 19 -31 16 0 21 8 23 43 l4
42 18 -40 c13 -31 24 -41 42 -43 l25 -2 -23 23 c-21 20 -25 37 -19 98 2 24 58
76 89 82 15 3 44 -1 64 -8 32 -11 38 -10 38 1 0 8 -6 14 -14 14 -11 0 -26 20
-26 35 0 8 72 15 83 8 6 -4 27 -8 45 -8 l33 0 -22 18 c-23 18 -70 18 -121 -2
-27 -10 -47 -31 -29 -31 6 0 11 -3 11 -8 0 -4 -19 -6 -41 -4 -28 3 -37 7 -28
13 11 7 11 9 1 9 -7 0 -15 -7 -18 -15 -4 -8 -12 -15 -20 -15 -17 0 -18 17 -1
23 7 3 5 6 -5 6 -14 1 -18 10 -18 40 0 33 3 39 25 43 13 3 26 0 29 -6 2 -6 5
-3 5 7 1 17 21 25 21 7 0 -11 51 -60 62 -60 16 0 7 19 -11 25 -11 3 -26 19
-33 35 -13 31 -27 37 -43 21z"/>
</g>
</svg>
